<svg width="101" height="70" viewBox="0 0 101 70" fill="none" xmlns="http://www.w3.org/2000/svg">
<path fill-rule="evenodd" clip-rule="evenodd" d="M35.4016 48.4045C41.3122 48.4045 48.321 45.4428 47.8042 46.0938C44.9082 49.0573 41.0102 50.8121 36.8873 51.0083C28.5866 51.6917 17.9281 47.0376 12.4696 47.298C7.01119 47.5583 0.583785 50.9432 1.35895 50.1295C4.72118 47.1974 8.86677 45.3295 13.2771 44.7594C16.184 44.5966 31.2351 48.2093 35.4016 48.4045Z" stroke="#C8CBD4" stroke-miterlimit="22.93"/>
<path fill-rule="evenodd" clip-rule="evenodd" d="M44.5439 54.1571C43.4146 56.3763 36.252 58.885 33.9289 58.9171C28.315 58.9171 21.8944 56.0869 15.7965 55.7009C9.69859 55.315 4.95582 59.5925 5.66563 58.7242C6.58085 57.1299 7.89309 55.798 9.47563 54.8571C11.0582 53.9162 12.8575 53.3981 14.6995 53.353C16.345 53.353 25.8952 56.0868 34.058 56.5693C37.6706 56.4017 41.223 55.5845 44.5439 54.1571V54.1571Z" stroke="#C8CBD4" stroke-miterlimit="22.93"/>
<path fill-rule="evenodd" clip-rule="evenodd" d="M68.6936 7.17422C69.7892 5.92284 71.1314 4.91103 72.6363 4.20211C75.3186 3.20064 79.4874 3.23293 82.5575 2.26376C85.6277 1.2946 87.2436 0.357713 87.4698 1.58532C87.4698 2.0053 84.7228 3.62059 84.3996 4.52514C84.0765 5.4297 86.2094 4.88053 86.371 5.46203C86.5326 6.04353 85.8216 6.04351 85.6601 6.30196C84.7229 7.78801 82.4283 8.27259 83.6241 9.53251C86.5972 12.1816 98.0052 14.766 100.009 14.7337C100.655 14.7337 99.4271 15.5737 97.8436 15.8644C95.0491 16.3021 92.2337 16.5932 89.4088 16.7366C88.4393 16.7366 91.7357 17.8027 90.8954 17.8996C89.2796 18.1258 84.7551 16.3167 82.6868 16.5105C81.7173 16.5105 84.3673 18.8365 84.0118 19.3857C83.6564 19.9349 79.9076 17.8997 79.7137 18.3842C79.0674 20.0641 81.3941 21.4209 82.7514 23.0362C84.7228 25.2976 87.0496 29.7558 89.9258 30.8542C91.2508 31.3711 85.3045 31.2419 82.1051 28.9805C80.6186 27.9467 80.0045 25.3945 78.5502 24.6192C77.9685 24.3284 78.1302 27.8498 77.5808 27.3652C75.868 26.3314 74.9308 23.65 73.4442 22.907C72.7009 22.5516 73.121 26.4929 72.4746 26.1376C69.6953 24.6192 68.532 20.6779 68.0795 21.7117C67.6271 22.7455 69.0167 24.3608 68.7582 25.2976C68.7582 25.5561 67.4008 25.2976 67.4008 25.6207C66.399 35.1185 64.1692 53.3712 66.0759 61.4476C66.6899 64.1935 71.2466 58.217 71.8606 60.446C72.4746 62.6751 72.7332 63.6766 72.7332 63.6766C72.7332 64.775 67.4332 68.7809 62.7149 68.7809C57.9966 68.7809 53.8277 67.1656 53.8277 66.0672C53.8277 66.0672 54.2477 64.355 54.8941 61.8029C55.3788 59.8968 58.1259 66.6487 58.7076 63.9028C59.2893 61.1568 58.4167 54.7603 58.7076 48.4607C58.8692 42.678 60.2587 36.6368 60.6465 32.9863C61.2415 29.7813 62.1843 26.6507 63.4582 23.65C63.8783 22.5839 65.2679 21.6471 65.1063 20.9041C64.9447 20.1611 62.7472 20.5487 60.2911 21.8409C57.835 23.1331 54.1508 26.1699 51.5008 27.3329C50.7252 27.6559 53.4076 24.3284 52.7289 24.6515C46.8795 27.4621 41.2886 30.6604 41.2563 28.8836C41.2239 27.1067 43.1307 25.9114 44.488 24.1023C46.0885 21.4954 47.8817 19.0117 49.8526 16.6721C51.1776 15.3152 53.3429 14.766 53.3752 13.6353C53.3752 13.3769 48.9478 13.3446 48.9801 12.86C49.0124 12.3754 52.2118 11.7616 51.4685 11.4062C50.7252 11.0509 47.235 11.4062 46.5887 10.6955C45.9423 9.98479 49.0447 8.85407 48.4307 8.49871C45.8776 7.04496 41.1917 6.65732 41.3856 5.94659C41.8703 4.42823 46.7826 5.49429 52.3411 5.26815C54.5286 4.9147 56.6885 4.40736 58.8045 3.74984C60.9479 3.44058 63.1246 3.44058 65.268 3.74984C67.207 4.20212 68.435 7.17422 68.6936 7.17422Z" stroke="#C8CBD4" stroke-miterlimit="22.93"/>
<path fill-rule="evenodd" clip-rule="evenodd" d="M21.0223 47.7891C23.5734 47.7891 26.0673 47.0327 28.1884 45.6153C30.3096 44.198 31.9629 42.1835 32.9391 39.8266C33.9154 37.4697 34.1707 34.8762 33.673 32.3741C33.1754 29.8721 31.9469 27.5737 30.143 25.7698C28.3391 23.9659 26.0408 22.7375 23.5387 22.2398C21.0366 21.7421 18.4432 21.9976 16.0863 22.9738C13.7293 23.9501 11.7149 25.6033 10.2976 27.7245C8.88025 29.8456 8.12372 32.3394 8.12372 34.8905C8.12372 38.3115 9.48267 41.5923 11.9016 44.0112C14.3206 46.4302 17.6014 47.7891 21.0223 47.7891Z" stroke="#C8CBD4" stroke-miterlimit="22.93"/>
</svg>
