<svg width="88" height="57" viewBox="0 0 88 57" fill="none" xmlns="http://www.w3.org/2000/svg">
<path fill-rule="evenodd" clip-rule="evenodd" d="M11.7065 16.8516C15.6631 16.924 19.6173 16.6101 23.513 15.9144C25.6284 15.234 27.6883 14.3912 29.6743 13.3936C35.8679 11.0344 37.8679 12.3594 40.7712 14.7833C41.4989 15.5737 42.2746 16.3185 43.0938 17.0132L43.3841 48.0707C41.7067 48.0707 41.4486 46.2609 40.1583 44.8389C38.2584 43.0932 35.8917 41.9403 33.3478 41.5212C30.804 41.1022 28.1934 41.4353 25.8356 42.4797C23.1904 43.32 21.0614 45.0328 18.6098 45.7115C14.7838 46.5284 10.8503 46.714 6.96454 46.2609L11.7065 16.8516Z" stroke="#C8CBD4" stroke-miterlimit="22.93"/>
<path fill-rule="evenodd" clip-rule="evenodd" d="M49.5618 8.44502C51.1498 7.5363 52.8891 6.92309 54.6954 6.63511C57.0465 6.4542 59.3856 6.14126 61.7017 5.6978C62.2427 5.50493 62.7711 5.27827 63.2837 5.01911C65.0595 4.08183 66.5125 2.69207 67.9976 1.78711L70.1931 28.742C68.6434 29.5823 67.4488 31.974 65.2532 32.5881C61.0559 33.493 57.2461 32.3295 54.082 33.3638C51.2398 34.2294 48.7644 36.0139 47.0434 38.438C46.0637 40.1655 45.1799 41.9458 44.3959 43.7708C44.3959 39.0521 44.3959 21.47 44.3959 14.6828C44.4282 13.0344 48.3026 9.15606 49.5618 8.44502Z" stroke="#C8CBD4" stroke-miterlimit="22.93"/>
<path fill-rule="evenodd" clip-rule="evenodd" d="M9.03555 18.7387L4.25436 49.2955C9.29667 49.6535 14.3639 49.2277 19.2763 48.0331C21.6345 47.3533 23.8959 45.8643 26.1249 44.9904C28.2895 44.1214 30.6109 43.7136 32.9413 43.7927C35.8702 44.2104 38.5997 45.5214 40.7591 47.5476C41.5087 48.2437 42.2102 48.9898 42.859 49.781C43.1498 50.1371 43.3113 50.0076 44.1512 50.04C44.9911 50.0724 45.2173 49.3602 45.7664 48.5834C46.3156 47.8065 47.091 47.4181 47.7048 46.803C49.3246 45.0636 51.5395 44.0002 53.9073 43.8251C57.572 43.8655 61.1854 44.6934 64.5034 46.2528C66.0218 46.8678 67.7339 47.7094 69.2846 48.3244C73.7419 49.7751 78.4714 50.1848 83.1111 49.5221L78.9115 18.4797H79.3637L86.6324 51.8851H50.4507C49.1908 53.1151 48.6416 54.3452 47.8663 55.122C46.7167 55.9495 45.3404 56.4016 43.925 56.4168C42.4874 56.3843 41.0879 55.9468 39.8869 55.1544C38.9177 54.3128 38.3039 52.7267 36.6564 51.6909H0.894653L7.35568 19.3214L9.03555 18.7387Z" stroke="#C8CBD4" stroke-miterlimit="22.93"/>
<path fill-rule="evenodd" clip-rule="evenodd" d="M73.3285 7.09863L70.1091 9.2862L71.912 30.8399C71.2276 31.8666 70.3401 32.7424 69.3043 33.4135C68.0377 34.1353 66.6341 34.5845 65.1835 34.7325C61.5878 34.6596 57.9921 34.8747 54.4308 35.3759C52.7429 36.0337 51.1596 36.9332 49.7305 38.046C47.6425 40.2022 46.0014 42.7495 44.9015 45.5415C46.8133 42.3018 49.7791 39.8151 53.3041 38.4963C58.2619 37.3704 64.3465 39.2362 69.2399 39.1397C70.8452 39.1561 72.4393 38.8724 73.9402 38.3033C75.1957 37.7564 75.904 36.8557 76.5157 36.727L73.3285 7.09863Z" stroke="#C8CBD4" stroke-miterlimit="22.93"/>
<path fill-rule="evenodd" clip-rule="evenodd" d="M76.5056 14.9388H75.6375L78.628 39.7111C77.7798 39.7885 76.9464 39.9844 76.1519 40.2932C74.4476 41.134 73.4186 42.5246 70.7817 42.46C66.7622 42.46 61.1347 39.7758 56.7614 39.8081C49.9763 39.8081 43.8987 48.6046 45.3779 47.1493C46.7614 45.6576 48.341 44.3628 50.0728 43.3008C51.4445 42.6319 52.9542 42.2994 54.4783 42.3306C56.5324 42.1963 58.5951 42.3157 60.6202 42.6864C64.2218 43.6242 67.7912 45.3059 71.7465 46.1467C74.745 46.6174 77.7834 46.7799 80.8147 46.6318L76.5056 14.9388Z" stroke="#C8CBD4" stroke-miterlimit="22.93"/>
</svg>
