<svg width="68" height="75" viewBox="0 0 68 75" fill="none" xmlns="http://www.w3.org/2000/svg">
<path fill-rule="evenodd" clip-rule="evenodd" d="M42.0177 3.65045C41.8238 3.87601 45.25 3.65043 45.25 4.03711C44.1823 4.26495 43.1034 4.43705 42.0177 4.55268C41.3389 4.55268 41.3712 5.19712 41.2419 5.39046C41.1126 5.5838 41.2419 5.77715 41.0803 5.90604C40.9187 6.03493 43.4722 5.90604 43.3752 5.90604C42.8257 6.51827 39.3672 6.64715 38.8177 7.45272C35.2622 12.6406 32.3531 19.6974 33.1612 21.0507C33.9693 22.4041 35.4562 21.663 37.04 22.0819C40.5817 22.982 43.6383 25.2097 45.5732 28.3009C46.47 30.2269 47.5525 32.0615 48.8054 33.7787C50.3941 35.5463 51.7022 37.5458 52.6842 39.7078C53.1367 40.7067 53.4276 42.0923 53.8802 42.9301C54.5539 44.2577 55.1476 45.6242 55.658 47.0223C56.1105 48.3757 56.369 49.8257 56.7246 51.1791C56.852 51.7258 57.0139 52.2639 57.2094 52.7902C57.5973 53.7891 58.1791 54.5947 58.6316 55.5291C59.0841 56.4636 60.7326 59.557 62.7043 62.7149C64.0059 64.6468 65.1827 66.6594 66.2275 68.7405C67.6174 71.8017 67.4881 74.4761 66.5508 74.4117C65.6134 74.3473 64.1589 72.5106 62.7043 70.6416C62.0256 69.8038 60.7003 69.385 60.1832 68.386C59.666 67.3871 60.668 66.5171 60.1832 65.5504C58.6317 63.0048 55.6579 61.1037 54.0741 58.1714C52.8458 55.8514 52.361 53.0158 51.2297 50.728C50.7125 49.6646 49.5489 48.8913 48.9671 48.0213C48.3853 47.1512 48.6439 46.6034 47.9651 46.1201C47.7712 45.959 47.1571 45.8623 46.9631 45.7334C47.2305 47.83 46.7746 49.955 45.6702 51.7591C42.7288 56.2703 37.7834 61.4259 35.4238 65.5504C34.7066 67.1855 33.8749 68.7683 32.935 70.2872C31.624 71.6855 30.0252 72.7847 28.2482 73.5095C26.632 74.3473 25.8239 73.0906 26.1148 72.4139C26.8035 71.3149 27.6913 70.3533 28.733 69.5783C29.0885 68.8694 28.733 66.5494 29.1532 65.776C29.5734 65.0027 32.0622 65.4538 32.3855 64.8415C33.937 62.5215 34.4865 58.397 35.941 55.8836C36.9107 54.1758 38.9793 53.4669 39.6581 51.888C40.3369 50.3091 40.9834 50.1479 41.0803 49.149C40.9125 47.4928 40.6535 45.8469 40.3046 44.2189C40.3556 42.5516 40.2908 40.8828 40.1107 39.2244C39.1414 38.0974 38.2861 36.8778 37.5572 35.5833C36.3612 33.811 38.6561 31.2332 37.5572 30.4921C37.0077 30.1376 36.5875 29.7509 36.038 29.7831C34.9708 29.964 33.9361 30.3006 32.9673 30.782C32.6436 31.0017 32.2968 31.1854 31.933 31.3298C29.8643 31.7809 27.8603 31.8454 27.1815 32.651C26.923 32.9732 27.1815 33.5854 27.1815 33.9721C27.1815 34.3588 30.4138 34.7454 31.5128 35.4865C31.7067 35.4865 30.1552 36.2922 30.2522 36.4855C30.64 37.1622 32.0299 37.5166 32.9673 37.6777C33.9046 37.8388 35.1006 36.3244 36.1995 36.6788C37.2985 37.0333 35.3591 38.3544 35.6824 38.7733C36.0056 39.1922 38.3975 38.7733 38.4622 39.5467C38.5268 40.32 36.7813 41.3833 36.6844 41.8344C36.5874 42.2856 38.8177 41.8344 38.7531 42.1889C38.6805 42.388 38.5941 42.5818 38.4945 42.7689C38.4945 42.7689 36.8138 43.0911 36.7814 43.1556C36.7491 43.22 38.5268 43.9934 38.4622 44.0578C38.3975 44.1223 35.3915 43.7356 35.2299 43.8645C35.0683 43.9934 36.846 45.7012 36.7491 45.8623C36.6521 46.0234 34.4864 45.089 34.3895 45.2178C34.2925 45.3467 37.1693 47.8279 36.943 48.1179C36.7167 48.4079 33.1613 46.7323 32.935 46.9257C32.7087 47.119 34.8743 49.1491 34.7127 49.278C34.5511 49.4068 32.2562 48.6013 31.9976 48.7624C31.739 48.9235 31.9976 50.4057 31.7713 50.5346C31.5451 50.6635 29.7997 49.6968 29.5734 49.8901C29.3471 50.0835 29.4117 51.2757 29.3148 51.2757C28.733 51.2757 25.63 49.4712 25.8239 49.9868C27.3754 54.0147 25.0805 49.7291 24.9513 49.5679C24.0785 48.4079 21.2341 47.0223 20.5553 46.3457C20.329 46.0879 19.2301 44.4767 19.1978 44.4767C19.1655 44.4767 18.8099 46.9901 18.6806 46.5068C18.5513 46.0234 18.1311 43.9934 17.9695 43.2845C17.8079 42.5756 17.0967 40.0622 16.8058 38.9666C16.8058 38.8055 16.2887 38.7089 16.2564 38.5478C16.3511 37.9392 16.3511 37.3196 16.2564 36.711C16.0625 36.0666 15.3837 35.6477 15.3514 35.5188C15.319 35.3899 14.9311 35.5188 14.9311 35.5188C14.9026 35.2618 14.9026 35.0024 14.9311 34.7454C14.9311 34.4232 15.9331 34.5843 15.9008 34.2621C15.8405 33.3394 15.8405 32.4137 15.9008 31.4909C15.9008 30.492 16.8059 31.781 17.9695 31.201C18.4543 30.9432 18.6483 30.1053 19.0039 29.6542C19.4129 29.0821 19.9027 28.572 20.4583 28.1398C21.2018 27.7209 22.8502 27.7853 22.3977 26.8831C21.9452 25.9808 20.9108 25.4975 20.329 24.563C19.5443 22.8984 18.5681 21.3304 17.42 19.8907C16.8382 19.3752 16.7412 18.9885 16.1271 18.6663C15.1754 18.3774 14.2794 17.9308 13.4766 17.3451C12.1837 15.9273 10.8584 14.5095 9.63015 13.124C8.40188 11.7384 6.85041 9.90168 5.71911 8.38721C5.26659 7.77497 5.13731 7.00161 4.71711 6.45382C4.29691 5.90603 3.55351 5.61604 3.23029 5.16493C2.45454 4.10157 1.19394 3.52154 1 2.78042C1 2.78042 1.00001 2.36153 1.51718 2.58709C2.03434 2.81265 2.22827 3.29598 2.51918 3.23154C2.81008 3.16709 2.7131 1.91043 2.81007 1.74932C2.90704 1.5882 2.81007 2.36154 2.81007 2.49043C2.84205 2.74476 2.95541 2.98202 3.13332 3.16708C3.24798 3.25859 3.39048 3.30849 3.53736 3.30849C3.68424 3.30849 3.82674 3.25859 3.94139 3.16708C4.10301 3.16708 3.94139 2.68373 3.94139 2.45817C3.94139 2.23261 4.19996 1.7493 4.23229 1.68486C4.26461 1.62041 4.94336 1.00817 5.008 1.07262C5.07265 1.13706 4.62018 1.74929 4.45857 2.3293C4.39681 3.10187 4.56547 3.87541 4.94339 4.55268C4.94339 4.74602 5.26659 4.81047 5.62215 4.81047C5.9777 4.81047 6.04239 4.81045 6.07471 4.48823C6.10704 4.166 6.07471 2.58706 6.07471 2.45817C6.07471 2.32928 6.30096 2.45817 6.46257 2.45817C6.62419 2.45817 6.46252 7.2594 6.91504 7.77496C9.01603 9.99834 13.1533 11.545 15.6745 13.8329C16.321 14.4129 16.4827 15.154 17.0645 15.734C21.4604 20.0519 24.7573 23.7253 25.0482 23.0808C25.6624 21.6952 28.2805 22.1141 29.0562 20.6319C31.739 14.9607 35.5208 7.13049 40.0137 4.3271C43.0521 2.23262 45.9288 -0.892965 42.0177 3.65045Z" stroke="#C8CBD4" stroke-miterlimit="22.93"/>
</svg>
