<svg width="23" height="49" viewBox="0 0 23 49" fill="none" xmlns="http://www.w3.org/2000/svg">
<path d="M21.7743 0H19.1225C11.7523 0 5.75619 5.99625 5.75619 13.3665V19.0076H1.22572C0.759204 19.0076 0.38089 19.3859 0.38089 19.8524V26.6111C0.38089 27.0776 0.759204 27.4559 1.22572 27.4559H5.75585V48.1552C5.75585 48.6217 6.13417 49 6.60068 49H13.3593C13.8258 49 14.2041 48.6217 14.2041 48.1552V27.4559H20.9266C21.3931 27.4559 21.7714 27.0776 21.7714 26.6111V19.8524C21.7714 19.3859 21.3931 19.0076 20.9266 19.0076H14.2041V13.3665C14.2041 10.6546 16.4105 8.44828 19.1222 8.44828H21.774C22.2405 8.44828 22.6188 8.06996 22.6188 7.60345V0.844828C22.6191 0.378314 22.2408 0 21.7743 0Z" fill="white"/>
</svg>
