<svg width="50" height="50" viewBox="0 0 50 50" fill="none" xmlns="http://www.w3.org/2000/svg">
<path d="M24.6914 0.191406C31.36 0.191406 32.1815 0.23973 34.791 0.336377C37.3522 0.433024 39.1401 0.867935 40.7348 1.49614C42.3778 2.12435 43.7309 2.94584 45.0839 4.2989C46.437 5.65196 47.2585 7.00502 47.8867 8.64801C48.5149 10.2427 48.9498 12.0307 49.0464 14.5918C49.1431 17.2013 49.1914 18.0228 49.1914 24.6914C49.1914 31.36 49.1431 32.1815 49.0464 34.791C48.9498 37.3522 48.5149 39.1401 47.8867 40.7348C47.2585 42.3778 46.437 43.7309 45.0839 45.0839C43.7309 46.437 42.3778 47.2585 40.7348 47.8867C39.1401 48.5149 37.3522 48.9498 34.791 49.0464C32.1815 49.1431 31.36 49.1914 24.6914 49.1914C18.0228 49.1914 17.2013 49.1431 14.5918 49.0464C12.0307 48.9498 10.2427 48.5149 8.64801 47.8867C7.00502 47.2585 5.65196 46.437 4.2989 45.0839C2.94584 43.7309 2.12435 42.3778 1.49614 40.7348C0.867935 39.1401 0.433024 37.3522 0.336377 34.791C0.23973 32.1815 0.191406 31.36 0.191406 24.6914C0.191406 18.0228 0.23973 17.2013 0.336377 14.5918C0.433024 12.0307 0.867935 10.2427 1.49614 8.64801C2.12435 7.00502 2.94584 5.65196 4.2989 4.2989C5.65196 2.94584 7.00502 2.12435 8.64801 1.49614C10.2427 0.867935 12.0307 0.433024 14.5918 0.336377C17.2013 0.23973 18.0228 0.191406 24.6914 0.191406ZM24.6914 3.38076C17.7328 3.38076 16.9113 3.42908 14.2052 3.52573C11.6924 3.62237 10.291 4.10561 9.37287 4.44387C7.00502 5.41034 5.41034 7.00502 4.44387 9.37287C4.10561 10.291 3.62237 11.6924 3.52573 14.2052C3.42908 16.9113 3.38076 17.7328 3.38076 24.6914C3.38076 31.65 3.42908 32.4715 3.52573 35.1776C3.62237 37.6904 4.10561 39.0918 4.44387 40.0099C5.41034 42.3778 7.00502 43.9725 9.37287 44.9389C10.291 45.2772 11.6924 45.7604 14.2052 45.8571C16.9113 45.9537 17.7328 46.0021 24.6914 46.0021C31.65 46.0021 32.4715 45.9537 35.1776 45.8571C37.6904 45.7604 39.0918 45.2772 40.0099 44.9389C42.3778 43.9725 43.9725 42.3778 44.9389 40.0099C45.2772 39.0918 45.7604 37.6904 45.8571 35.1776C45.9537 32.4715 46.0021 31.65 46.0021 24.6914C46.0021 17.7328 45.9537 16.9113 45.8571 14.2052C45.7604 11.6924 45.2772 10.291 44.9389 9.37287C43.9725 7.00502 42.3778 5.41034 40.0099 4.44387C39.0918 4.10561 37.6904 3.62237 35.1776 3.52573C32.4715 3.42908 31.65 3.38076 24.6914 3.38076ZM24.6914 34.5011C30.1036 34.5011 34.5011 30.1036 34.5011 24.6914C34.5011 19.2792 30.1036 14.8817 24.6914 14.8817C19.2792 14.8817 14.8817 19.2792 14.8817 24.6914C14.8817 30.1036 19.2792 34.5011 24.6914 34.5011ZM24.6914 12.1273C31.65 12.1273 37.2555 17.7328 37.2555 24.6914C37.2555 31.65 31.65 37.2555 24.6914 37.2555C17.7328 37.2555 12.1273 31.65 12.1273 24.6914C12.1273 17.7328 17.7328 12.1273 24.6914 12.1273ZM40.7348 11.6441C40.7348 13.2871 39.3817 14.5435 37.7387 14.5435C36.0957 14.5435 34.8393 13.2871 34.8393 11.6441C34.8393 10.0011 36.0957 8.64801 37.7387 8.64801C39.3817 8.64801 40.7348 10.0011 40.7348 11.6441Z" fill="white"/>
</svg>
