<svg width="49" height="49" viewBox="0 0 49 49" fill="none" xmlns="http://www.w3.org/2000/svg">
<path d="M46.7877 27.4885C46.9428 26.3989 47.0207 25.2998 47.0207 24.1992C47.0207 11.6726 36.8326 1.47479 24.2962 1.47479C23.2483 1.47479 22.181 1.5524 21.1428 1.6882C19.0857 0.582162 16.757 0 14.4089 0C6.56886 0 0.194031 6.37479 0.194031 14.2051C0.194031 16.5144 0.756765 18.7946 1.83381 20.8225C1.66886 21.9384 1.58153 23.0736 1.58153 24.1992C1.58153 36.7257 11.7696 46.9236 24.306 46.9236C25.1889 46.9236 26.0816 46.8751 26.9549 46.7684C29.2351 48.2238 31.8744 49 34.6008 49C42.4408 49 48.806 42.6252 48.806 34.7949C48.806 32.214 48.1073 29.6912 46.7877 27.4885ZM42.3437 42.5378C40.277 44.6045 37.5214 45.7495 34.5911 45.7495C32.4273 45.7495 30.3412 45.1189 28.5462 43.9254L27.7408 43.3918L26.7803 43.5179C25.9652 43.6246 25.1307 43.6731 24.306 43.6731C21.6765 43.6731 19.1246 43.1589 16.7279 42.14C14.4089 41.16 12.3228 39.7531 10.5375 37.9677C8.75219 36.1824 7.34521 34.0963 6.36516 31.7773C5.3464 29.3806 4.83209 26.8287 4.83209 24.1993C4.83209 23.1707 4.90971 22.1325 5.0747 21.1137L5.2105 20.2404L4.78362 19.4641C3.91033 17.8632 3.44454 16.0487 3.44454 14.2051C3.44454 11.2748 4.57977 8.52887 6.65619 6.45245C8.7229 4.38574 11.4786 3.24075 14.4089 3.24075C16.2816 3.24075 18.1349 3.72591 19.7554 4.63792L20.5316 5.07456L21.4145 4.94843C22.3654 4.80286 23.3455 4.73501 24.306 4.73501C26.9355 4.73501 29.4874 5.24927 31.8841 6.26808C34.2031 7.24808 36.2892 8.65501 38.0745 10.4403C39.8598 12.2257 41.2668 14.3118 42.2468 16.6308C43.2656 19.0275 43.7799 21.5793 43.7799 24.2088C43.7799 25.2179 43.7023 26.2367 43.547 27.2362L43.4014 28.1871L43.9157 29.0118C44.9927 30.7486 45.5652 32.7475 45.5652 34.7948C45.5554 37.7154 44.4105 40.4711 42.3438 42.5378L42.3437 42.5378ZM27.6924 22.084L23.0932 21.0459C20.5898 20.4831 19.3283 19.6195 19.3283 18.4358C19.3283 17.5917 19.6777 16.9027 20.3666 16.3787C21.0555 15.8547 22.0355 15.5928 23.2872 15.5928C24.7621 15.5928 25.9652 15.9033 26.8773 16.534C27.149 16.7086 27.7312 17.2811 28.6238 18.2417C29.206 18.8627 29.8367 19.1829 30.5062 19.1829C31.1951 19.1829 31.7968 18.9888 32.2819 18.6007C32.7766 18.2126 33.0193 17.6789 33.0193 17.0094C33.0193 15.4666 32.0005 14.1276 29.9629 12.9923C28.0416 11.9153 25.9362 11.3816 23.6462 11.3816C21.007 11.3816 18.8141 11.9444 17.0675 13.0603C15.0299 14.3799 14.0111 16.2816 14.0111 18.7559C14.0111 22.1519 15.9808 24.3545 19.9202 25.3539L26.1301 26.9257C27.6923 27.3236 28.4782 28.1677 28.4782 29.4389C28.4782 30.2927 28.0998 31.0107 27.3429 31.6123C26.5182 32.2818 25.4217 32.6214 24.0633 32.6214C22.4818 32.6214 21.2107 32.243 20.2501 31.4861C20.0268 31.3309 19.4155 30.642 18.4161 29.4097C17.7952 28.6528 17.0868 28.2744 16.3107 28.2744C15.6411 28.2744 15.0881 28.4879 14.6514 28.9148C14.2148 29.3418 14.0014 29.8851 14.0014 30.5547C14.0014 32.078 14.8165 33.417 16.4466 34.5717C18.3387 35.9592 20.8905 36.6481 24.0732 36.6481C27.2848 36.6481 29.7591 35.9204 31.5056 34.4649C33.155 33.1259 33.9799 31.3115 33.9799 29.0313C34.009 25.3635 31.9034 23.0445 27.6924 22.0839V22.084Z" fill="white"/>
</svg>
