<svg width="95" height="54" viewBox="0 0 95 54" fill="none" xmlns="http://www.w3.org/2000/svg">
<path fill-rule="evenodd" clip-rule="evenodd" d="M33.4537 48.2394C43.422 48.2394 57.4872 39.2525 67.3264 39.6727C84.1659 40.3516 91.6502 48.401 93.8116 52.2479C95.6504 55.4806 83.7788 44.7157 69.391 44.4894C61.1003 44.4894 50.0352 52.5065 40.3573 52.9914C13.4205 54.3491 5.74272 46.1058 2.03286 40.3839C-1.677 34.662 6.35562 48.2394 33.4537 48.2394Z" stroke="#C8CBD4" stroke-miterlimit="22.93"/>
<path fill-rule="evenodd" clip-rule="evenodd" d="M73.6405 25.3196C75.4663 25.3196 77.2511 24.7782 78.7692 23.7639C80.2873 22.7495 81.4705 21.3078 82.1692 19.621C82.8679 17.9341 83.0507 16.078 82.6945 14.2873C82.3383 12.4966 81.4591 10.8518 80.1681 9.56074C78.8771 8.26971 77.2322 7.39051 75.4415 7.03431C73.6508 6.67812 71.7946 6.86094 70.1078 7.55964C68.421 8.25834 66.9793 9.44155 65.965 10.9596C64.9506 12.4777 64.4092 14.2625 64.4092 16.0883C64.4177 18.534 65.3931 20.877 67.1224 22.6064C68.8518 24.3358 71.1949 25.3111 73.6405 25.3196V25.3196Z" stroke="#C8CBD4" stroke-miterlimit="22.93"/>
<path fill-rule="evenodd" clip-rule="evenodd" d="M40.8201 0.787109C42.8801 0.787109 46.324 7.98398 50.7658 15.439C55.2075 22.894 60.6149 30.4781 60.6149 32.6404C60.6149 33.9313 21.4759 37.9654 17.2595 37.9654C13.043 37.9654 23.9543 33.2859 33.0953 28.0577C36.314 26.1536 42.4295 23.6363 43.7491 21.6031C44.4894 20.5058 40.5304 8.95215 36.9577 10.0817C30.2307 12.2117 20.0598 21.7322 15.9399 18.4081C12.7212 15.9231 19.1585 11.3081 26.6902 7.27398C31.2305 4.758 35.9539 2.58951 40.8201 0.787109Z" stroke="#C8CBD4" stroke-miterlimit="22.93"/>
</svg>
