<svg width="85" height="49" viewBox="0 0 85 49" fill="none" xmlns="http://www.w3.org/2000/svg">
<path d="M81.3046 38.218C79.4539 36.0025 77.3508 34.0169 75.3169 32.0966C74.5937 31.4136 73.846 30.7075 73.1251 30.0054C71.0557 27.9876 70.9803 27.2295 72.6188 24.9375C73.7524 23.3576 74.9543 21.7756 76.1166 20.2457C77.1709 18.8576 78.2611 17.4221 79.306 15.982L79.5206 15.6859C81.5177 12.93 83.5832 10.0804 84.6823 6.6427C84.9678 5.73574 85.2675 4.40109 84.5822 3.28507C83.8974 2.16998 82.5689 1.82978 81.6291 1.67088C81.1642 1.59225 80.7026 1.58152 80.2742 1.58152L67.1952 1.57218L67.0872 1.57125C65.1097 1.57125 63.777 2.50061 63.0133 4.41276C62.2843 6.23974 61.4834 8.18525 60.5696 10.0351C58.7509 13.7187 56.4412 17.9614 53.099 21.4998L52.9577 21.6503C52.563 22.0734 52.1159 22.5524 51.7891 22.5524C51.739 22.5524 51.6845 22.5428 51.6227 22.5235C50.9304 22.2544 50.4658 20.5831 50.4868 19.8056C50.487 19.7949 50.4873 19.7841 50.4873 19.7734L50.4781 4.69789C50.4781 4.64562 50.4744 4.59382 50.4676 4.54202C50.1349 2.09135 49.3979 0.565827 46.6133 0.0219318C46.5393 0.0072319 46.4638 0 46.3884 0H32.7889C30.5733 0 29.3524 0.898092 28.2048 2.24231C27.8951 2.60164 27.2503 3.3497 27.5698 4.25712C27.8941 5.17808 28.9467 5.37501 29.2895 5.43895C30.9909 5.76188 31.9499 6.79974 32.2216 8.61318C32.6958 11.7622 32.7541 15.1234 32.405 19.191C32.3077 20.3215 32.1151 21.1946 31.7978 21.9406C31.7241 22.1147 31.4628 22.6828 31.1963 22.6831C31.1116 22.6831 30.8667 22.6499 30.4205 22.3433C29.3655 21.6226 28.5937 20.594 27.6938 19.3235C24.6326 15.009 22.0635 10.2561 19.8384 4.78982C19.0132 2.77757 17.4721 1.65105 15.497 1.61792C13.3267 1.58502 11.3591 1.56915 9.48241 1.56915C7.43194 1.56915 5.53096 1.58805 3.67468 1.62655C2.08558 1.65455 0.986409 2.12961 0.408045 3.0396C-0.171255 3.9503 -0.133586 5.14658 0.520115 6.59464C5.753 18.1966 10.4976 26.6322 15.9045 33.9476C19.6932 39.0664 23.4932 42.6095 27.8623 45.0971C32.4654 47.7232 37.6238 49 43.6321 49C44.3131 49 45.0174 48.9834 45.7275 48.9503C49.2187 48.7807 50.5139 47.5205 50.6777 44.1304C50.7556 42.3979 50.9456 40.5809 51.7996 39.0314C52.3386 38.0551 52.8412 38.0551 53.0064 38.0551C53.3246 38.0551 53.719 38.2012 54.1428 38.4749C54.9027 38.9696 55.5543 39.6322 56.0884 40.2111C56.5912 40.7611 57.0884 41.3166 57.586 41.8724C58.6599 43.072 59.7703 44.3121 60.9303 45.4884C63.4693 48.0646 66.2664 49.1976 69.479 48.9517H81.4702C81.4957 48.9517 81.5214 48.9508 81.547 48.9491C82.7418 48.8705 83.7766 48.2095 84.3861 47.1357C85.1411 45.8055 85.1259 44.1084 84.3454 42.5951C83.4599 40.8838 82.3111 39.4218 81.3046 38.218Z" fill="white"/>
</svg>
