<svg width="51" height="49" viewBox="0 0 51 49" fill="none" xmlns="http://www.w3.org/2000/svg">
<path fill-rule="evenodd" clip-rule="evenodd" d="M4.21084 23.9375C4.21084 12.9839 14.713 2.4375 25.6666 2.4375C36.6202 2.4375 47.4583 13.5463 47.4583 24.4999C47.4583 35.4535 36.6202 46.4375 25.6666 46.4375C21.7648 46.4375 18.0226 44.8791 14.9583 42.9375C14.388 42.5763 12.155 42.9375 13.0423 42.6727L3.00064 45.7496L7.12132 37.5846C7.42029 36.8851 7.35946 36.0838 6.95831 35.4375C5.07725 32.4063 4.21084 27.7733 4.21084 23.9375ZM25.6666 0C12.1357 0 1.16671 10.969 1.16671 24.4999C1.16671 28.7888 2.27071 32.826 4.21084 36.3362L0.187766 45.7496C-0.167884 46.5819 -0.01024 47.5446 0.592249 48.2199C1.19474 48.8954 2.13341 49.1614 3.00064 48.9024L13.4993 45.7694C17.0857 47.8251 21.2419 48.9999 25.6666 48.9999C39.1976 48.9999 50.1666 38.0309 50.1666 24.4999C50.1666 10.969 39.1976 0 25.6666 0ZM31.0158 29.5922L27.9493 31.7522C26.5131 30.9341 24.9253 29.7922 23.3326 28.1994C21.6769 26.5437 20.4493 24.8343 19.5442 23.2663L21.493 21.6122C22.3293 20.9024 22.5582 19.7057 22.043 18.7373L19.5599 14.0706C19.2256 13.4422 18.6227 13.0008 17.9226 12.8719C17.2226 12.743 16.502 12.9406 15.9657 13.4087L15.2295 14.0512C13.4592 15.5963 12.4121 18.1353 13.2799 20.7062C14.1796 23.3713 16.0996 27.5659 20.0328 31.4992C24.2645 35.731 28.563 37.3974 31.0767 38.0447C33.102 38.5659 35.0186 37.8671 36.3691 36.7667L37.7493 35.6421C38.3396 35.1612 38.6581 34.4222 38.6026 33.6627C38.5468 32.9032 38.124 32.2186 37.4698 31.8287L33.5537 29.4954C32.7627 29.0243 31.7687 29.0621 31.0158 29.5922Z" fill="white"/>
</svg>
